<svg xmlns="http://www.w3.org/2000/svg" width="50" height="50">
    <path fill-rule="evenodd" fill="#E7E7E7" d="M24.874 0c13.737 0 24.874 11.137 24.874 24.874 0 13.738-11.137 24.874-24.874 24.874C11.136 49.748 0 38.612 0 24.874 0 11.137 11.136 0 24.874 0z"/>
    <path fill-rule="evenodd" fill="#B6B6B6" d="M14.924 18.812c0-1.223.393-2.463 1.178-3.718.785-1.255 1.931-2.295 3.438-3.119 1.506-.824 3.263-1.236 5.272-1.236 1.866 0 3.514.345 4.943 1.033 1.429.689 2.533 1.626 3.312 2.81a6.893 6.893 0 0 1 1.168 3.863c0 1.094-.222 2.054-.666 2.878a8.82 8.82 0 0 1-1.583 2.134c-.612.599-1.709 1.606-3.293 3.022-.438.4-.789.751-1.052 1.053-.264.303-.461.58-.589.831a4.073 4.073 0 0 0-.3.753c-.071.251-.177.692-.318 1.323-.245 1.339-1.011 2.008-2.298 2.008-.67 0-1.233-.218-1.69-.656-.457-.438-.686-1.088-.686-1.951 0-1.082.168-2.018.503-2.81a7.111 7.111 0 0 1 1.332-2.086c.553-.599 1.3-1.31 2.24-2.134.824-.721 1.419-1.265 1.786-1.632s.676-.776.927-1.227c.251-.45.377-.939.377-1.467 0-1.03-.383-1.899-1.149-2.608-.766-.708-1.754-1.062-2.964-1.062-1.417 0-2.46.357-3.129 1.072-.669.715-1.236 1.767-1.699 3.158-.438 1.455-1.268 2.182-2.491 2.182-.721 0-1.33-.254-1.825-.763-.496-.508-.744-1.059-.744-1.651zm9.424 21.168a3.044 3.044 0 0 1-2.057-.763c-.586-.509-.878-1.22-.878-2.134 0-.811.283-1.494.85-2.048.566-.553 1.261-.83 2.085-.83.811 0 1.493.277 2.047.83.553.554.83 1.237.83 2.048 0 .901-.289 1.609-.869 2.124a2.93 2.93 0 0 1-2.008.773z"/>
</svg>
